<svg id="Group_44774" data-name="Group 44774" xmlns="http://www.w3.org/2000/svg" xmlns:xlink="http://www.w3.org/1999/xlink" width="71.475" height="68.525" viewBox="0 0 71.475 68.525">
  <defs>
    <clipPath id="clip-path">
      <rect id="Rectangle_2121" data-name="Rectangle 2121" width="71.475" height="68.525" fill="none"/>
    </clipPath>
  </defs>
  <g id="Group_44775" data-name="Group 44775">
    <g id="Group_44774-2" data-name="Group 44774" clip-path="url(#clip-path)">
      <path id="Path_41208" data-name="Path 41208" d="M33.892,31.995A20.94,20.94,0,0,0,29.51,57.371,23.6,23.6,0,0,0,39.838,66.9a8.863,8.863,0,0,1,.739-1.254c-.006-.02-.014-.039-.019-.06a.473.473,0,0,1-.009-.194c-.233-.1-.468-.19-.7-.3A19.5,19.5,0,0,1,29.325,52.551a19.361,19.361,0,0,1,7.867-21.1c5.943-3.979,12.3-4.349,18.918-1.714l.614-1.338a20.771,20.771,0,0,0-22.832,3.6" transform="translate(-13.47 -13.185)" fill="#3659af"/>
      <rect id="Rectangle_2111" data-name="Rectangle 2111" width="3.2" height="1.466" transform="translate(32.776 31.915)" fill="#3659af"/>
      <rect id="Rectangle_2112" data-name="Rectangle 2112" width="3.199" height="1.451" transform="translate(38.141 31.905)" fill="#3659af"/>
      <rect id="Rectangle_2113" data-name="Rectangle 2113" width="3.247" height="1.404" transform="translate(32.757 46.658)" fill="#3659af"/>
      <path id="Path_41209" data-name="Path 41209" d="M75.974,74.887V73.426h3.2c.029.054.067.094.07.136.083,1.324.082,1.324-1.253,1.324H75.974" transform="translate(-37.855 -36.586)" fill="#3659af"/>
      <rect id="Rectangle_2114" data-name="Rectangle 2114" width="3.227" height="1.413" transform="translate(32.768 22.111)" fill="#3659af"/>
      <rect id="Rectangle_2115" data-name="Rectangle 2115" width="3.24" height="1.385" transform="translate(38.133 22.122)" fill="#3659af"/>
      <rect id="Rectangle_2116" data-name="Rectangle 2116" width="3.242" height="1.397" transform="translate(32.759 27.031)" fill="#3659af"/>
      <rect id="Rectangle_2117" data-name="Rectangle 2117" width="3.233" height="1.428" transform="translate(38.135 27.026)" fill="#3659af"/>
      <rect id="Rectangle_2118" data-name="Rectangle 2118" width="3.237" height="1.412" transform="translate(32.763 36.837)" fill="#3659af"/>
      <path id="Path_41210" data-name="Path 41210" d="M79.271,94.375H76V92.9c1,0,1.977-.012,2.955.017.111,0,.287.23.307.37a8.408,8.408,0,0,1,.015,1.089" transform="translate(-37.866 -46.287)" fill="#3659af"/>
      <rect id="Rectangle_2119" data-name="Rectangle 2119" width="3.251" height="1.398" transform="translate(38.115 41.76)" fill="#3659af"/>
      <rect id="Rectangle_2120" data-name="Rectangle 2120" width="3.222" height="1.412" transform="translate(32.758 41.727)" fill="#3659af"/>
      <path id="Path_41211" data-name="Path 41211" d="M130.088,76.966h-5.6V71.395h5.6ZM126,75.468h2.573v-2.56H126Z" transform="translate(-62.027 -35.574)" fill="#3659af"/>
      <path id="Path_41212" data-name="Path 41212" d="M98.744,76.963H93.131V71.376h5.613Zm-1.51-4.122c-.807,0-1.548-.013-2.287.013-.119,0-.332.17-.335.267-.028.783-.016,1.567-.016,2.339h2.638Z" transform="translate(-46.404 -35.564)" fill="#3659af"/>
      <path id="Path_41213" data-name="Path 41213" d="M108.783,71.341h5.6v5.612h-5.6Zm1.522,4.1h2.579V72.866H110.3Z" transform="translate(-54.203 -35.547)" fill="#3659af"/>
      <path id="Path_41214" data-name="Path 41214" d="M60.611,52.655v.18H59c.244.5.5,1,.765,1.489a.667.667,0,0,1-.164.937q-2.183,2.134-4.323,4.314a.719.719,0,0,1-1,.157c-2.221-1.13-4.462-2.221-6.683-3.353a1.068,1.068,0,0,0-1.06.011c-1.653.739-3.317,1.459-5.011,2.1a1.538,1.538,0,0,0-1.1,1.062c-.8,2.488-1.65,4.956-2.494,7.465-2.236,0-4.44-.019-6.643.014a.76.76,0,0,1-.87-.628c-.763-2.346-1.571-4.677-2.33-7.025a1.2,1.2,0,0,0-.863-.824c-1.736-.663-3.452-1.382-5.153-2.134a1.134,1.134,0,0,0-1.125-.03c-2.2,1.125-4.422,2.2-6.617,3.325a.8.8,0,0,1-1.115-.192q-2.1-2.163-4.271-4.264a.662.662,0,0,1-.153-.926c1.13-2.222,2.219-4.464,3.349-6.687a1.166,1.166,0,0,0,.01-1.137Q11.013,43.921,10,41.283a1.162,1.162,0,0,0-.809-.8c-2.368-.774-4.721-1.592-7.09-2.364a.672.672,0,0,1-.555-.767c.021-2.036.031-4.072-.006-6.107-.01-.528.208-.7.654-.847,2.346-.766,4.678-1.575,7.026-2.334a1.156,1.156,0,0,0,.786-.819c.671-1.733,1.366-3.458,2.121-5.156a1.226,1.226,0,0,0,0-1.2c-1.2-2.371-2.375-4.758-3.541-7.106l5.208-5.2c2.359,1.173,4.765,2.359,7.16,3.566a1.111,1.111,0,0,0,1.073.014q2.62-1.147,5.289-2.179a1.1,1.1,0,0,0,.747-.763c.77-2.345,1.579-4.676,2.334-7.026a.8.8,0,0,1,.922-.655q2.981.044,5.963,0a.75.75,0,0,1,.871.618c.769,2.37,1.6,4.72,2.366,7.09a1.089,1.089,0,0,0,.769.742c1.71.666,3.417,1.343,5.093,2.089a1.343,1.343,0,0,0,1.332.027c2.2-1.129,4.42-2.2,6.619-3.319a.645.645,0,0,1,.924.158c.619.7,1.272,1.377,1.861,2.009l1.175-1.138c-.874-.864-1.775-1.71-2.618-2.611A.825.825,0,0,0,54.5,7q-3.423,1.758-6.891,3.425a1.485,1.485,0,0,1-1.055,0c-1.376-.527-2.718-1.142-4.095-1.669A1.089,1.089,0,0,1,41.7,8c-.8-2.46-1.637-4.911-2.466-7.363C39.132.33,39.1,0,38.6,0c-3,.022-6.008.011-9.034.011-.117.324-.229.616-.329.912C28.454,3.26,27.656,5.6,26.9,7.944a1.222,1.222,0,0,1-.863.843q-2,.747-3.952,1.632a1.237,1.237,0,0,1-1.209,0c-2.459-1.249-4.933-2.47-7.389-3.695a1.216,1.216,0,0,0-.213.132c-2.093,2.088-4.178,4.185-6.284,6.261-.318.313-.163.538-.023.82,1.156,2.317,2.3,4.641,3.471,6.95a1.178,1.178,0,0,1,.01,1.145c-.6,1.322-1.162,2.658-1.667,4.016a1.225,1.225,0,0,1-.856.849c-2.46.806-4.908,1.65-7.368,2.456a.67.67,0,0,0-.55.763c.021,2.738.026,5.477,0,8.216a.8.8,0,0,0,.66.919c2.438.792,4.86,1.634,7.3,2.43a1.146,1.146,0,0,1,.809.8c.485,1.315,1,2.621,1.6,3.887a1.475,1.475,0,0,1-.018,1.474c-1.232,2.412-2.421,4.845-3.617,7.255a1.463,1.463,0,0,0,.143.219c2.075,2.072,4.159,4.136,6.221,6.221.295.3.515.226.821.073,2.358-1.185,4.715-2.37,7.09-3.519a1.28,1.28,0,0,1,.916,0c1.4.54,2.767,1.148,4.164,1.688a1.183,1.183,0,0,1,.814.805c.793,2.438,1.633,4.861,2.423,7.3.15.461.334.647.849.642q4.108-.044,8.217,0a.757.757,0,0,0,.865-.629q1.207-3.691,2.488-7.357a1.374,1.374,0,0,1,.692-.695c1.369-.607,2.775-1.134,4.141-1.748a1.091,1.091,0,0,1,1.069,0c2.31,1.17,4.639,2.3,6.945,3.481a.708.708,0,0,0,.989-.155c1.905-1.934,3.82-3.859,5.77-5.746a.853.853,0,0,0,.178-1.23c-.318-.581-.616-1.181-.915-1.795" transform="translate(0 0.001)" fill="#3659af"/>
    </g>
  </g>
  <g id="Group_44777" data-name="Group 44777">
    <g id="Group_44776" data-name="Group 44776" clip-path="url(#clip-path)">
      <path id="Path_41215" data-name="Path 41215" d="M99.032,41.891c-.454-6.708-.9-13.344-1.353-19.978H90.7c-.063.949-.122,1.842-.182,2.735q-.555,8.194-1.117,16.388a5.268,5.268,0,0,1-.208.87,3.09,3.09,0,0,1-.96-.355c-1.893-1.589-3.757-3.213-5.633-4.822-.151-.129-.322-.236-.591-.431v5.774a6.39,6.39,0,0,1-.939-.535c-1.882-1.6-3.75-3.221-5.625-4.832-.147-.126-.316-.225-.6-.422v5.647l-.882-.04V29.839H58.6v32.4h5.277q10.64,0,21.28-.011v-.01h4.654v.034h10.864V41.97l-1.642-.079M72.4,60.677H60.1V31.318H72.4ZM91.011,40.053h1.824V38.566H91.1c.1-1.543.194-3,.292-4.5H93.12V32.589H91.51c.1-1.536.187-2.973.282-4.494h1.922V26.583h-1.8c.07-1.094.133-2.1.2-3.143h4.147c.138,2.016.275,4.01.415,6.053l-1.083.073V31l1.186.121c.1,1.532.208,3.045.317,4.628H95.78V37.17c.5.1,1.137.049,1.358.328.249.313.12.926.155,1.408l.213,2.987H90.863l.148-1.84m-7.419-.464,2.641,2.271H83.592ZM76.47,39.6l2.667,2.3H76.47Zm22.674,21.1H74.027V58.146h4.649V56.615H74.022v-13.1H99.139v13.06H80.853v1.557H99.144Z" transform="translate(-29.198 -10.919)" fill="#d8d02d"/>
    </g>
  </g>
</svg>
