<svg xmlns="http://www.w3.org/2000/svg" width="232" height="48.029" viewBox="0 0 232 48.029">
  <g id="Group_44551" data-name="Group 44551" transform="translate(0 0)">
    <g id="Group_44392" data-name="Group 44392">
      <g id="Group_44482" data-name="Group 44482">
        <path id="Path_41022" data-name="Path 41022" d="M0,48.307,5.8,24.552C8.987,11.486,22.841.8,36.585.8l-2.946,12.07h-12.7L18.09,24.552h12.7C27.6,37.617,13.744,48.307,0,48.307" transform="translate(0 -0.503)" fill="#ced600" fill-rule="evenodd"/>
        <path id="Path_41023" data-name="Path 41023" d="M41.479.8H66.467C60.458,7.924,51.238,12.777,42.037,12.864v0h-3.5c-13.744,0-27.6,10.69-30.787,23.756l2.946-12.07a29.066,29.066,0,0,1,6.362-11.985l.073-.084q.4-.454.808-.9l.085-.089q.412-.438.84-.862l.088-.087q.424-.418.864-.822l.1-.1q.437-.4.887-.78l.119-.1.286-.238.063-.051c.179-.149.362-.3.545-.439l.15-.118c.093-.073.186-.144.279-.215l.12-.091c.167-.126.334-.251.5-.375l.169-.124L23.3,6.9l.211-.147c.136-.1.273-.19.412-.284l.215-.144c.085-.057.172-.115.259-.171L24.647,6c.123-.08.248-.158.373-.236.081-.051.163-.1.245-.152l.258-.157.247-.147.383-.222.269-.152c.078-.045.158-.088.239-.132l.306-.168.288-.153c.113-.059.228-.119.343-.177.077-.04.156-.08.235-.119.1-.053.211-.106.317-.158l.22-.107c.142-.068.284-.136.427-.2.073-.035.146-.068.22-.1.11-.051.222-.1.333-.15.063-.027.125-.056.188-.083q.239-.1.482-.2l.2-.081c.12-.05.242-.1.363-.146l.177-.069q.248-.1.5-.189l.177-.065.4-.141.161-.056c.171-.059.342-.116.514-.172l.164-.053.416-.129.152-.046c.176-.053.352-.1.528-.152l.152-.042.426-.113.155-.041q.269-.068.54-.131l.13-.03.45-.1.147-.031c.183-.039.367-.074.55-.109l.118-.021c.156-.029.31-.056.466-.082l.147-.023c.186-.031.372-.06.558-.087l.093-.012c.163-.022.327-.043.491-.063l.141-.017c.19-.022.379-.042.568-.06l.063-.006q.257-.024.514-.043l.151-.01c.191-.013.381-.025.571-.034H40.2c.187-.008.375-.015.561-.02L40.9.8Q41.19.8,41.479.8" transform="translate(-4.894 -0.503)" fill="#fff" fill-rule="evenodd"/>
        <path id="Path_41024" data-name="Path 41024" d="M76.864,65.3C73.675,78.37,59.82,89.059,46.077,89.059H33.38c13.744,0,27.6-10.689,30.788-23.755Z" transform="translate(-21.088 -41.255)" fill="#ced600" fill-rule="evenodd"/>
        <path id="Path_41025" data-name="Path 41025" d="M121,65.3a28.776,28.776,0,0,1-5.775,11.286,5.957,5.957,0,0,0-.635-7.371,7.766,7.766,0,0,0-4.627-1.745h-6.72l.53-2.17Z" transform="translate(-65.223 -41.255)" fill="#fff" fill-rule="evenodd"/>
        <path id="Path_41026" data-name="Path 41026" d="M196.82,29.759q-1.855-4.953-4.128-9.906a95.729,95.729,0,0,0-4.924-9.361l-4.857,19.267h-6.756L183.485.67h5.254q1.015,1.469,2.186,3.463t2.406,4.3q1.236,2.308,2.473,4.806t2.34,4.932L202.516.67h6.845l-7.375,29.089ZM216.249.67l-7.33,29.089h6.844L223.137.67Zm15.013,24.22a14.16,14.16,0,0,0,2.031-.147,6.3,6.3,0,0,0,1.811-.524,3.4,3.4,0,0,0,1.3-1.07,2.949,2.949,0,0,0,.507-1.785,2.246,2.246,0,0,0-.485-1.447,5.431,5.431,0,0,0-1.237-1.112,11.479,11.479,0,0,0-1.678-.924q-.927-.42-1.854-.924a24.822,24.822,0,0,1-2.252-1.427,8.871,8.871,0,0,1-1.811-1.7,7.893,7.893,0,0,1-1.192-2.1,7.423,7.423,0,0,1-.441-2.665,8.386,8.386,0,0,1,.772-3.588,7.974,7.974,0,0,1,2.3-2.876,11.248,11.248,0,0,1,3.82-1.909A18.711,18.711,0,0,1,238.238,0a15.883,15.883,0,0,1,2.738.231A22.684,22.684,0,0,1,243.449.8a14.955,14.955,0,0,1,2.1.776,14.522,14.522,0,0,1,1.612.861l-2.871,4.827a10.285,10.285,0,0,0-2.694-1.343,10.53,10.53,0,0,0-3.444-.545,10.952,10.952,0,0,0-1.943.167,5.185,5.185,0,0,0-1.634.567,3.246,3.246,0,0,0-1.126,1.028,2.747,2.747,0,0,0-.42,1.554,2.745,2.745,0,0,0,.331,1.406,3.529,3.529,0,0,0,.861.987,6.521,6.521,0,0,0,1.237.755l1.5.713q1.37.672,2.65,1.427a10.967,10.967,0,0,1,2.252,1.742,7.767,7.767,0,0,1,1.546,2.246,7.13,7.13,0,0,1,.574,2.981,8.818,8.818,0,0,1-.927,4.155,8.23,8.23,0,0,1-2.605,2.939,11.775,11.775,0,0,1-4,1.741,21.659,21.659,0,0,1-5.144.566,19.328,19.328,0,0,1-3.466-.293,25.786,25.786,0,0,1-2.914-.693,15.577,15.577,0,0,1-2.253-.861,13.909,13.909,0,0,1-1.523-.839l2.914-5q.53.336,1.28.714a14.891,14.891,0,0,0,1.7.713,16.7,16.7,0,0,0,2.008.567,10.417,10.417,0,0,0,2.208.23M272.459.67h6.888l-7.374,29.089h-6.889l3.136-12.383H257.358l-3.136,12.383h-6.843L254.708.67H261.6l-2.826,11.166h10.863Zm26.625,29.089h6.934q-.4-3.358-.862-7.2t-1.015-7.681q-.552-3.841-1.192-7.513T301.6.67h-6.137q-2.3,3.022-4.5,6.191t-4.526,6.7q-2.317,3.526-4.813,7.514t-5.365,8.689h7.2q.882-1.637,1.854-3.211t1.855-3.127h11.48q.133,1.553.243,3.127t.2,3.211M297.054,7.051q.442,2.9.685,5.793T298.2,18.3h-8.257q1.678-2.9,3.466-5.667t3.643-5.582m33.692,22.709q-1.855-4.953-4.129-9.906a95.337,95.337,0,0,0-4.924-9.361l-4.857,19.267H310.08L317.41.67h5.254q1.016,1.469,2.186,3.463t2.407,4.3q1.236,2.308,2.473,4.806t2.339,4.932L336.441.67h6.844l-7.374,29.089Z" transform="translate(-111.285 0.001)" fill="#fff" fill-rule="evenodd"/>
        <path id="Union_4" data-name="Union 4" d="M16.746,9.365a3.185,3.185,0,0,1-1.136-.576,2.128,2.128,0,0,1-.634-.884,3.087,3.087,0,0,1-.2-1.118A5.241,5.241,0,0,1,15.014,5.3l1.458-5.2h2.445L17.38,5.6a3.163,3.163,0,0,0-.156.977,1.514,1.514,0,0,0,.07.482.857.857,0,0,0,.25.375,1.237,1.237,0,0,0,.486.248,2.807,2.807,0,0,0,.76.087,1.891,1.891,0,0,0,1.425-.5,3.321,3.321,0,0,0,.754-1.426l1.6-5.73h2.445l-1.646,5.9a4.744,4.744,0,0,1-1.732,2.724,5.443,5.443,0,0,1-3.174.837A6.148,6.148,0,0,1,16.746,9.365Zm136.448.073a16.352,16.352,0,0,1-1.663-.213L154.056.268q.891-.148,1.716-.208t1.48-.06a7.4,7.4,0,0,1,2.076.268,4.587,4.587,0,0,1,1.552.762,3.3,3.3,0,0,1,.964,1.178,3.427,3.427,0,0,1,.329,1.514,5.489,5.489,0,0,1-.517,2.422,5.018,5.018,0,0,1-1.48,1.814A7.008,7.008,0,0,1,157.832,9.1a11.147,11.147,0,0,1-3.119.4Q154.056,9.505,153.193,9.437Zm2.852-7.644-1.661,5.917c.114.008.232.015.352.02s.285.007.493.007a5.924,5.924,0,0,0,1.841-.268,3.92,3.92,0,0,0,1.4-.771,3.383,3.383,0,0,0,.885-1.23,4.129,4.129,0,0,0,.313-1.641,2.409,2.409,0,0,0-.142-.849,1.556,1.556,0,0,0-.462-.656,2.215,2.215,0,0,0-.83-.422A4.489,4.489,0,0,0,157,1.753Q156.531,1.753,156.046,1.794ZM78.58,9.437a16.362,16.362,0,0,1-1.663-.213L79.442.268Q80.334.12,81.158.06T82.639,0a7.412,7.412,0,0,1,2.077.268,4.59,4.59,0,0,1,1.551.762,3.3,3.3,0,0,1,.964,1.178,3.446,3.446,0,0,1,.329,1.514,5.489,5.489,0,0,1-.517,2.422,5.028,5.028,0,0,1-1.48,1.814A7.016,7.016,0,0,1,83.219,9.1a11.148,11.148,0,0,1-3.119.4Q79.442,9.505,78.58,9.437Zm2.853-7.644L79.771,7.711c.115.008.232.015.353.02s.285.007.493.007a5.931,5.931,0,0,0,1.841-.268,3.92,3.92,0,0,0,1.4-.771,3.4,3.4,0,0,0,.885-1.23,4.108,4.108,0,0,0,.313-1.641,2.409,2.409,0,0,0-.142-.849,1.554,1.554,0,0,0-.462-.656,2.215,2.215,0,0,0-.83-.422,4.489,4.489,0,0,0-1.23-.148C82.074,1.753,81.755,1.766,81.432,1.794Zm62.954,7.59L146.5,1.86h-3.18l.5-1.753h8.807l-.5,1.753h-3.183L146.83,9.384Zm-9.123,0,2.6-9.277h2.444l-2.115,7.51h4.812l-.5,1.766Zm-10.906,0,2.115-7.524h-3.181l.5-1.753H132.6l-.5,1.753h-3.182L126.8,9.384Zm-10.233,0q-.252-1.138-.479-2.356t-.43-2.422q-.205-1.206-.361-2.35T112.586.107H115.2c.031.509.071,1.055.118,1.639s.1,1.176.164,1.767.127,1.183.2,1.767.139,1.131.212,1.64q.484-.7,1.043-1.526t1.128-1.727q.572-.9,1.129-1.807T120.22.107h2.6q-.595.963-1.3,2.075t-1.511,2.3q-.808,1.193-1.709,2.43t-1.888,2.47Zm-12.884,0L103.8.241q.845-.132,1.6-.187T106.835,0a7.944,7.944,0,0,1,1.778.181,4.317,4.317,0,0,1,1.34.522,2.506,2.506,0,0,1,.847.836,2.115,2.115,0,0,1,.3,1.111,3.038,3.038,0,0,1-.456,1.7,3.349,3.349,0,0,1-1.253,1.124,6.2,6.2,0,0,1-1.881.616,13.783,13.783,0,0,1-2.351.187h-.612l-.877,3.106Zm4.937-7.618-.375.027-.754,2.731h.612a7.694,7.694,0,0,0,1.2-.087,3.023,3.023,0,0,0,.924-.288,1.565,1.565,0,0,0,.6-.516,1.338,1.338,0,0,0,.212-.768.884.884,0,0,0-.51-.858,3.307,3.307,0,0,0-1.449-.255C106.454,1.753,106.3,1.758,106.176,1.766ZM88.171,9.384l2.6-9.277h7.1l-.5,1.714H92.716l-.5,1.873h4.106l-.487,1.686H91.727L91.1,7.657h5.014l-.5,1.727Zm-15.156,0c-.021-.348-.044-.69-.07-1.024s-.055-.667-.087-1H68.785q-.316.495-.659,1t-.659,1.024H64.912q1.022-1.5,1.906-2.771t1.708-2.4q.824-1.125,1.607-2.135T71.73.107h2.178q.252.963.477,2.134t.423,2.4q.2,1.226.361,2.45c.11.816.213,1.582.306,2.3ZM71,3.922q-.636.884-1.231,1.808H72.7c-.051-.544-.107-1.125-.164-1.74s-.138-1.231-.243-1.847Q71.636,3.038,71,3.922ZM61.4,9.384q-.363-.924-.729-1.827A8.125,8.125,0,0,0,59.85,6H58.629l-.956,3.387H55.242L57.8.241q.847-.132,1.646-.187C59.978.018,60.462,0,60.9,0a6.986,6.986,0,0,1,1.834.214,4.116,4.116,0,0,1,1.3.575,2.344,2.344,0,0,1,.768.85,2.215,2.215,0,0,1,.251,1.024,3.274,3.274,0,0,1-.118.869,2.168,2.168,0,0,1-.438.817,3.392,3.392,0,0,1-.862.716,5.358,5.358,0,0,1-1.388.555,15.541,15.541,0,0,1,.9,1.688q.461.99.87,2.075Zm-1.129-7.6c-.188.008-.345.018-.469.026l-.7,2.544h.829a5.646,5.646,0,0,0,1.27-.121,2.662,2.662,0,0,0,.831-.32,1.227,1.227,0,0,0,.447-.462,1.144,1.144,0,0,0,.132-.529,1.229,1.229,0,0,0-.077-.436.855.855,0,0,0-.282-.367A1.518,1.518,0,0,0,61.7,1.86a3.438,3.438,0,0,0-.877-.094C60.646,1.766,60.462,1.771,60.274,1.781ZM48.1,9.384,50.214,1.86H47.033l.5-1.753h8.809l-.5,1.753H52.658L50.541,9.384Zm-7.053,0,2.6-9.277h2.444L43.474,9.384Zm-7.146,0L36.015,1.86H32.834l.5-1.753h8.807l-.5,1.753H38.459L36.343,9.384Zm-9.121,0L27.38.107h2.444l-2.115,7.51H32.52l-.5,1.766Zm-15.311,0q.329-1.365.7-2.951t.681-3.206q-.407.548-.91,1.224t-1,1.366q-.5.69-.972,1.318T7.146,8.206H5.361c-.052-.268-.116-.606-.188-1.017s-.154-.846-.243-1.305-.181-.923-.275-1.392S4.472,3.6,4.389,3.226q-.613,1.619-1.1,3.206T2.368,9.384H0q.361-1.1.792-2.343t.895-2.483Q2.148,3.32,2.6,2.169T3.464.107H5.657q.095.361.244,1.024T6.213,2.59c.111.53.223,1.075.338,1.633s.219,1.07.315,1.533q.53-.695,1.159-1.5T9.263,2.677q.611-.775,1.16-1.453T11.363.107h2.162q-.109.924-.29,2.075t-.408,2.383c-.15.821-.311,1.646-.476,2.476s-.335,1.611-.5,2.343Z" transform="translate(60.352 37.957)" fill="#fff" stroke="rgba(0,0,0,0)" stroke-width="1"/>
      </g>
    </g>
  </g>
</svg>
