<svg xmlns="http://www.w3.org/2000/svg" width="65.637" height="65.839" viewBox="0 0 65.637 65.839">
  <g id="Group_44778" data-name="Group 44778" transform="translate(0 0)">
    <path id="Path_41177" data-name="Path 41177" d="M63.926,65.139q-3.052-.007-6.1,0H54.6l0-2.694c0-.823.006-1.645-.013-2.467a.679.679,0,0,0-.715-.762.689.689,0,0,0-.792.687,4.59,4.59,0,0,0-.017.605l0,.22v4.37H40.377v-2.1c0-1,0-2-.009-3a.68.68,0,0,0-.7-.775c-.5-.021-.756.208-.8.729-.02.229-.018.461-.015.706l0,.259v4.177H26.043v-2.2c0-.907,0-1.814,0-2.721a1.115,1.115,0,0,0-.222-.789.751.751,0,0,0-.541-.161c-.429.007-.717.169-.725.931,0,.429,0,.857,0,1.286V65.09H11.836l0-2.2c0-.927,0-1.854-.007-2.781-.01-.794-.363-.9-.761-.9-.316,0-.738.092-.743.85-.008,1.118-.006,2.236,0,3.361v1.658H1.547V56.32H3.842l.823,0c.658.005,1.338.007,2-.017a.682.682,0,0,0,.754-.726.691.691,0,0,0-.7-.783,5.056,5.056,0,0,0-.6-.014l-.233,0H1.533v-12.7H3.184c1.116,0,2.218,0,3.321,0,.809,0,.915-.4.916-.751,0-.372-.1-.755-.9-.767-.847-.012-1.7-.011-2.543-.01-.47,0-.94,0-1.409,0-.179,0-.358-.011-.535-.021l-.484-.024V27.859H3.8c.956,0,1.912,0,2.868-.011a.672.672,0,0,0,.751-.713.755.755,0,0,0-.169-.559.8.8,0,0,0-.579-.2c-.662-.018-1.325-.017-1.988-.013l-3.159,0V13.594l.507-.025c.171-.01.332-.019.494-.019q.984,0,1.965,0H6.154c1.16,0,1.257-.308,1.267-.741a.655.655,0,0,0-.148-.519,1.648,1.648,0,0,0-1.124-.257H1.493V7.345c0-1.624,0-3.249-.009-4.874a.791.791,0,0,0-.193-.579A.749.749,0,0,0,.75,1.714H.733c-.474.005-.691.226-.725.74C0,2.582,0,2.71,0,2.837v62.5c0,1.208.085,1.292,1.292,1.292l62.534,0a2.979,2.979,0,0,0,.454-.016.655.655,0,0,0,.629-.727.682.682,0,0,0-.173-.506,1.131,1.131,0,0,0-.811-.247" transform="translate(0 -0.798)" fill="#3659af"/>
    <path id="Path_41178" data-name="Path 41178" d="M49.184,31.757v-.941c0-.506,0-1,0-1.5-.01-.87-.384-.994-.749-1a.7.7,0,0,0-.53.168,1.2,1.2,0,0,0-.251.854c0,.375-.005.749-.007,1.123l0,.855a.513.513,0,0,1-.035.172l-.053.15-.169.06c-7.312,1.149-11.434,5.289-12.6,12.658l-.036.225h-.874c-.5,0-1.013,0-1.526,0-.812.007-.93.353-.937.724a.713.713,0,0,0,.161.533,1.119,1.119,0,0,0,.793.232c.5.005,1,0,1.492,0h.893l.035.225c1.139,7.318,5.276,11.461,12.646,12.666l.224.037v.859c0,.484,0,.983,0,1.481.009.88.4,1,.748,1.009a.7.7,0,0,0,.521-.169,1.219,1.219,0,0,0,.261-.863c0-.486,0-.971,0-1.444v-.83L49.389,59c.378-.09.755-.168,1.129-.245a15.642,15.642,0,0,0,2.254-.58,13.289,13.289,0,0,0,9.1-11.215c.1-.682.407-.94,1.067-.892a15.449,15.449,0,0,0,1.62,0l.065,0c.714-.022.8-.426.8-.728.006-.5-.268-.744-.836-.754-.527-.01-1.056-.007-1.6,0l-.993,0-.021-.244A13.736,13.736,0,0,0,59.523,37.5l-1.21,1.2a12.85,12.85,0,0,1,2.017,5.581l.038.3H59.355c-.49,0-.961,0-1.433,0-.818.008-.934.35-.938.718,0,.326.093.76.969.771.467.006.932,0,1.4,0h.9v.267c0,4.184-3.787,10.333-10.884,11l-.292.027v-.293c0-.24,0-.481,0-.721.005-.527.01-1.072-.011-1.6a.823.823,0,0,0-.446-.72.632.632,0,0,0-.664.064,1.3,1.3,0,0,0-.379.809,10.635,10.635,0,0,0-.048,1.373c0,.213,0,.426,0,.639a.4.4,0,0,1-.081.223l-.08.149-.176,0A11.873,11.873,0,0,1,36.326,46.363l-.02-.285h.953c.493,0,.985,0,1.476,0,.826-.012.921-.432.92-.747s-.1-.731-.925-.741c-.482-.006-.964-.005-1.445,0h-.927l.008-.275a11.745,11.745,0,0,1,10.912-10.93l.276-.009,0,.9c0,.467,0,.933,0,1.4.013.876.384,1,.745,1.005a.693.693,0,0,0,.518-.169,1.206,1.206,0,0,0,.253-.863c0-.454,0-.909,0-1.361v-.847l.243-.022a10.13,10.13,0,0,1,5.638,1.906l1.173-1.173a13.546,13.546,0,0,0-6.7-2.369Z" transform="translate(-14.63 -13.192)" fill="#3659af"/>
    <path id="Path_41179" data-name="Path 41179" d="M60,28.693a19.938,19.938,0,0,1-.363,25.515,20.214,20.214,0,0,1-14.27,7.2q-.623.038-1.244.038A20.193,20.193,0,1,1,56.6,25.325L57.727,24.2A21.15,21.15,0,0,0,44.273,19.47q-.568,0-1.14.029a21.889,21.889,0,0,0-15.294,7.3,21.526,21.526,0,0,0,.1,28.878A21.889,21.889,0,0,0,56.55,59.062a21.2,21.2,0,0,0,8.826-13.135,21.464,21.464,0,0,0-4.252-18.351Z" transform="translate(-10.402 -9.07)" fill="#ced600"/>
    <path id="Path_41180" data-name="Path 41180" d="M94.311,4.874a.989.989,0,0,0-.632-.371,24.472,24.472,0,0,0-2.443-.183l-.157-.006a.812.812,0,0,1-.9-.863c-.035-.558-.107-1.127-.178-1.676-.034-.266-.068-.532-.1-.8-.062-.549-.218-.809-.556-.929s-.611-.02-1,.374c-1.906,1.928-3.492,3.513-4.991,4.989a1.247,1.247,0,0,0-.412,1.136c.11.9.235,1.963.327,3.022a1.15,1.15,0,0,1-.24.855c-1.471,1.5-2.956,2.992-4.44,4.481L62.134,31.351a2.358,2.358,0,0,0-.353.4.646.646,0,0,0,.115.913.672.672,0,0,0,.931.075,2.354,2.354,0,0,0,.33-.3l.112-.115c2.472-2.47,17.486-17.39,18.021-17.921l1.651-1.643,0,0c.431-.426.862-.86,1.294-1.283a1.225,1.225,0,0,1,.855-.239c.417.014.834.038,1.252.063.537.032,1.094.065,1.638.072a1.312,1.312,0,0,0,.777-.189C90.866,9.143,92.6,7.411,94.2,5.735a1.084,1.084,0,0,0,.109-.861M90.767,7.033c-.891.919-1.738,1.792-2.593,2.655a.818.818,0,0,1-.567.194l-.054,0-.2-.011c-.609-.033-1.238-.067-1.855-.161a.948.948,0,0,1-.68-.682c-.119-.695-.178-1.405-.235-2.093l-.007-.088a.936.936,0,0,1,.177-.69c.872-.9,1.755-1.787,2.693-2.729l1.129-1.136L88.7,3.52c.043.421.081.794.129,1.167.111.866.222.97,1.08,1.012.294.014.588.038.926.066l1.077.085Z" transform="translate(-28.715 0)" fill="#ced600"/>
  </g>
</svg>
