<svg xmlns="http://www.w3.org/2000/svg" width="67.754" height="67.719" viewBox="0 0 67.754 67.719">
  <g id="Group_44773" data-name="Group 44773" transform="translate(0 0)">
    <path id="Path_41188" data-name="Path 41188" d="M67.165,70.37a3.525,3.525,0,0,0,.368-3.226c-.764-2.38-1.444-4.827-2.1-7.193q-.426-1.533-.859-3.064a3.158,3.158,0,0,0-3.562-2.669H58.418l-.041-.312-.02-.139a1.037,1.037,0,0,1-.016-.163l0-2.041q0-1.491,0-2.983a3.085,3.085,0,0,0-3.408-3.42H12.541a3.046,3.046,0,0,0-3.307,3.309q0,1,0,2v3.752H7.815c-.2,0-.386,0-.576,0A2.99,2.99,0,0,0,4.2,56.3C2.912,59.84,1.533,63.653.187,67.532a3.046,3.046,0,0,0,.338,2.775A3.145,3.145,0,0,0,3.1,71.614c.15,0,.3,0,.449,0h.39l.41,0h.359v4.621c0,3.433,0,6.825,0,10.217A3.037,3.037,0,0,0,7.973,89.73l26.878,0,25.839,0A3.041,3.041,0,0,0,64,86.422Q64,81.611,64,76.8V71.647l.362,0h.046a3.3,3.3,0,0,0,2.76-1.281M10.791,48.241a1.462,1.462,0,0,1,1.57-1.528q.736-.011,1.473-.01l1,0,1,0H44.3v7.46H10.784v-.359q0-.816,0-1.622c0-1.356-.005-2.635.009-3.945m-7.3,21.827A1.918,1.918,0,0,1,1.8,69.439a1.9,1.9,0,0,1-.029-1.779q1.864-5.222,3.735-10.441c.438-1.223.76-1.454,2.028-1.454H43.94l-.136.46c-.03.1-.055.194-.079.28-.05.176-.092.329-.148.484q-2.092,5.852-4.189,11.7c-.4,1.107-.777,1.377-1.939,1.377H3.486ZM44.3,61.954v26.23H8.241c-1.5,0-1.988-.482-1.988-1.985V71.616h31.01c2.1,0,2.952-.608,3.662-2.6q1.169-3.28,2.345-6.557l.057-.159a1.429,1.429,0,0,1,.374-.608l.6-.554Zm1.614-8.146v-7.1h5.942q1.567,0,3.135,0c1.255,0,1.792.547,1.794,1.82,0,1.224,0,2.447,0,3.689v1.949H45.917ZM62.45,86.283c0,1.367-.522,1.9-1.859,1.9H45.922v-24.9l.24-.084.075-.026.357-.125.106.363L47,64.45q.354,1.223.708,2.446.125.433.246.866c.148.525.3,1.05.455,1.571a3.017,3.017,0,0,0,3.073,2.28q2.2.005,4.409,0H62.45v9.447q0,2.61,0,5.22m3.493-16.806a1.844,1.844,0,0,1-1.558.591l-6.458,0h-6.2c-1.178,0-1.588-.306-1.908-1.42q-1.558-5.436-3.108-10.875l-.285-1c-.031-.108-.055-.218-.084-.352-.014-.065-.03-.137-.049-.217l-.1-.44h14.9c1.242,0,1.631.3,1.981,1.517q1.508,5.258,3.009,10.517a1.866,1.866,0,0,1-.139,1.677" transform="translate(0 -22.014)" fill="#1a3c8d"/>
    <path id="Path_41189" data-name="Path 41189" d="M39.329,8.736c-.217.547-.441,1.113-.677,1.665a1.1,1.1,0,0,1-.725.628,3.392,3.392,0,0,1-.551.038c-.116,0-.236,0-.359-.007s-.256-.008-.392-.008h-.358V8.827H29.123V22.746h7.17l.032-.515.027-.448.049-.808.565.579a4.557,4.557,0,0,0,3.65,1.255c.249,0,.5-.005.749-.01l.067,0c.532-.011,1.063-.014,1.6-.014q.594,0,1.189,0t1.185,0l.632,0a3.011,3.011,0,0,0,3.116-2.461c.429-1.854.843-3.731,1.229-5.578a3.017,3.017,0,0,0-.572-2.541,3.126,3.126,0,0,0-2.4-1.153c-.169,0-.337-.005-.508-.005l-.44,0-.484,0H45.54l.083-.427.086-.445c.056-.291.107-.554.16-.817a3.17,3.17,0,0,0-2.142-3.833,3.321,3.321,0,0,0-.95-.142,3.2,3.2,0,0,0-2.958,2.129c-.168.4-.329.811-.49,1.218m-4.613,1.991V21.185H30.69V10.368h4.026Zm6.034-1.379q.261-.648.521-1.3a1.5,1.5,0,0,1,1.344-1.087,1.327,1.327,0,0,1,.208.017,2.2,2.2,0,0,1,1.352.836,1.978,1.978,0,0,1,.132,1.416c-.155.9-.336,1.784-.526,2.716l-.133.653H45.6c.5,0,1,0,1.5,0a1.8,1.8,0,0,1,1.49.551,1.83,1.83,0,0,1,.208,1.6L48.519,16c-.283,1.285-.567,2.57-.861,3.853a1.513,1.513,0,0,1-1.724,1.384c-.471,0-.942,0-1.413.008-.613,0-1.227.009-1.84.009-1.111,0-2.015-.015-2.844-.046A2.945,2.945,0,0,1,38.6,20.78c-.166-.088-.323-.171-.478-.235a2.877,2.877,0,0,1-1.853-3.361,20.839,20.839,0,0,0,.054-2.732c-.01-.42-.02-.84-.019-1.258A.723.723,0,0,1,36.34,13c.008-.029.017-.067.029-.119l.064-.279h.286c.242,0,.483,0,.722,0s.473,0,.708,0c.39,0,.709.006,1,.018h.05c.193,0,.27-.024.372-.291.38-1,.784-2,1.176-2.974" transform="translate(-14.197 -2.627)" fill="#1a3c8d"/>
    <path id="Path_41190" data-name="Path 41190" d="M77.183,11.775a1.82,1.82,0,0,1,.53,1.369c-.013,2.24-.011,4.519-.008,6.723l0,1.339c0,.034,0,.069,0,.1l.63-.417c.995-.659,1.934-1.281,2.871-1.926a1.2,1.2,0,0,1,.672-.244,1.157,1.157,0,0,1,.668.242c.931.644,1.875,1.268,2.874,1.929l.623.412V19.717c0-2.267,0-4.408-.009-6.579a1.822,1.822,0,0,1,.536-1.365,6.421,6.421,0,1,0-9.39,0m7.263,2.061v4.506l-.554-.359c-.156-.1-.311-.2-.465-.29A8.885,8.885,0,0,1,82.405,17a.9.9,0,0,0-.538-.256.857.857,0,0,0-.529.262,7.547,7.547,0,0,1-1,.7c-.159.1-.323.2-.492.314l-.558.371V13.359l.465.144a7.113,7.113,0,0,0,2.126.336,6.737,6.737,0,0,0,2.1-.342l.47-.154ZM81.836,2.523h.032a4.886,4.886,0,0,1,.01,9.772h0a4.886,4.886,0,0,1-.04-9.772" transform="translate(-36.768 -0.473)" fill="#1a3c8d"/>
    <path id="Path_41191" data-name="Path 41191" d="M2.463,29.8a5.309,5.309,0,0,1,2.617-.769,4.546,4.546,0,0,1,3.776,2.291L9.712,32.6l.211.315,1.258-.845C9.867,29.8,8.405,27.8,5.572,27.517c-.219-.022-.438-.032-.65-.032a5.683,5.683,0,0,0-3.378,1.089L2,29.181Z" transform="translate(-0.753 -13.398)" fill="#1a3c8d"/>
    <path id="Path_41192" data-name="Path 41192" d="M107.866,16.634l.119.237.566,1.123.624-.313c.714-.357,1.415-.708,2.116-1.056a4.053,4.053,0,0,1,1.8-.459,3.194,3.194,0,0,1,1.3.276,8.128,8.128,0,0,1,1.366.833c.132.092.265.186.4.278l1.094-.731.1-.069a5.28,5.28,0,0,0-2.819-1.913,4.9,4.9,0,0,0-1.4-.2,9.113,9.113,0,0,0-4.232,1.452c-.341.182-.691.369-1.047.546" transform="translate(-52.582 -7.135)" fill="#1a3c8d"/>
    <path id="Path_41193" data-name="Path 41193" d="M10.9,14.494c.253.235.509.473.771.709l.358-.27.735-.555A10.017,10.017,0,0,0,4.835,9.837V11.37a7.187,7.187,0,0,1,3.82,1.2A24.944,24.944,0,0,1,10.9,14.494" transform="translate(-2.357 -4.795)" fill="#1a3c8d"/>
    <path id="Path_41194" data-name="Path 41194" d="M23.451,2.508c.271,0,.541,0,.81,0a11.094,11.094,0,0,1,5.1.91L30,2.135l.048-.094a12.323,12.323,0,0,0-5.7-1.089c-.588,0-1.192.016-1.775.031l-.072,0V2.512h.141c.271,0,.542,0,.812,0" transform="translate(-10.967 -0.464)" fill="#1a3c8d"/>
    <path id="Path_41195" data-name="Path 41195" d="M115.21,34.4l-.37,1.457c2.133.411,3.307,1.495,3.578,3.3h1.52A5.229,5.229,0,0,0,115.21,34.4" transform="translate(-55.982 -16.77)" fill="#1a3c8d"/>
    <path id="Path_41196" data-name="Path 41196" d="M108.562,1.4l.493-.492-.59-.642L108.217,0l-.382.38-2.461,2.448.876.887Z" transform="translate(-51.367 0)" fill="#1a3c8d"/>
    <path id="Path_41197" data-name="Path 41197" d="M4.592,44.251l-.458.433-.446.422,1,1.008.676.681.9-.849L4.916,44.579Z" transform="translate(-1.797 -21.571)" fill="#1a3c8d"/>
    <rect id="Rectangle_2106" data-name="Rectangle 2106" width="1.468" height="1.481" transform="translate(34.177 0.528)" fill="#1a3c8d"/>
    <rect id="Rectangle_2107" data-name="Rectangle 2107" width="1.485" height="1.451" transform="translate(53.418 15.262)" fill="#1a3c8d"/>
    <rect id="Rectangle_2108" data-name="Rectangle 2108" width="8.252" height="1.461" transform="translate(10.424 60.559)" fill="#1a3c8d"/>
  </g>
</svg>
